<svg viewBox="0 0 382 112" class="css-1j8o68f"><defs id="SvgjsDefs3025"></defs><g id="SvgjsG3026" featurekey="rootContainer" transform="matrix(1,0,0,1,0,0)" fill="#00204a"><rect xmlns="http://www.w3.org/2000/svg" width="382" height="112" rx="10" ry="10"></rect></g><g id="SvgjsG3027" featurekey="symbolFeature-0" transform="matrix(0.9093205332756042,0,0,0.9093205332756042,12.80727559795307,12.808184418980368)" fill="#d9faff"><path xmlns="http://www.w3.org/2000/svg" d="M77.157,29.962l-8.131-0.06c-2.196,0-3.982-1.871-3.982-4.172l-0.006-7.888c0-5.477-4.541-9.933-10.122-9.933H40.084  c-5.581,0-10.123,4.456-10.123,9.933l0.053,22.785c0,5.043,3.853,9.219,8.82,9.848H55.47c1.831,0.205,3.301,1.545,3.617,3.263  v23.419c0,2.195-1.872,3.981-4.172,3.981H40.084c-2.3,0-4.172-1.786-4.172-3.981v-9.306c-0.549-4.699-4.453-8.411-9.297-8.765  h-8.772c-2.196,0-3.982-1.871-3.982-4.172v-14.83c0-2.301,1.786-4.172,3.982-4.172h6.168v-5.951h-6.168  c-5.478,0-9.933,4.541-9.933,10.123v14.83c0,5.582,4.455,10.123,9.933,10.123h8.51c1.825,0.207,3.29,1.542,3.608,3.252v8.867  c0,5.477,4.542,9.933,10.123,9.933h14.831c5.581,0,10.122-4.456,10.122-9.933V60.596h0.067l-0.067-7.294  c-0.544-4.709-4.457-8.43-9.313-8.777H39.282c-1.892-0.377-3.316-1.98-3.316-3.896l-0.053-22.785c0-2.195,1.872-3.981,4.172-3.981  h14.831c2.3,0,4.172,1.786,4.172,3.981l0.005,7.888c0,5.581,4.457,10.123,9.934,10.123l8.131,0.06c2.195,0,3.982,1.871,3.982,4.172  v14.83c0,2.301-1.787,4.172-3.982,4.172h-6.168v5.951h6.168c5.477,0,9.933-4.541,9.933-10.123v-14.83  C87.089,34.503,82.633,29.962,77.157,29.962z"></path></g><g id="SvgjsG3028" featurekey="nameFeature-0" transform="matrix(0.775097668170929,0,0,0.775097668170929,110.44980471645779,25.94586701130576)" fill="#d9faff"><path d="M2 40 l0 -32 l6 0 c6 0 6 4.4 6 15.16 c0 12.4 0 16.84 -6 16.84 l-6 0 z M6 36 l2 0 c2.24 0 2.24 -1.68 2.24 -12.84 c0 -10 0 -11.96 -2.24 -11.96 l-2 0 l0 24.8 z M19.1 40 l0 -32 l6.48 0 c4.12 0 5.52 2.52 5.52 7.36 c0 4.36 -0.52 6.84 -1.76 8.04 l0 0.24 c1.04 0.36 1.36 2.24 1.76 6.92 l0.8 9.44 l-4 0 l-0.52 -9.44 c-0.28 -4.76 -1 -5.76 -2.2 -5.76 l-2.08 0 l0 15.2 l-4 0 z M23.1 21.6 l2.48 0 c1.4 0 1.8 -1.4 1.8 -6.24 c0 -3.16 -0.6 -4.16 -1.8 -4.16 l-2.48 0 l0 10.4 z M36.6 37.96 c0 -1.52 0.52 -2.04 2.04 -2.04 s2.04 0.52 2.04 2.04 s-0.52 2.04 -2.04 2.04 s-2.04 -0.52 -2.04 -2.04 z M56.480000000000004 40 l0 -32 l8.4 0 l0 3.2 l-4.4 0 l0 12 l3.6 0 l0 3.2 l-3.6 0 l0 13.6 l-4 0 z M68.78 23.16 c0 -11.16 0.24 -15.56 6.24 -15.56 s6.24 4.4 6.24 15.56 c0 12.8 -0.24 17.24 -6.24 17.24 s-6.24 -4.44 -6.24 -17.24 z M72.78 23.16 c0 11.56 0 13.24 2.24 13.24 s2.24 -1.68 2.24 -13.24 c0 -10.4 0 -12.36 -2.24 -12.36 s-2.24 1.96 -2.24 12.36 z M86.36000000000001 40 l0 -32 l6.48 0 c4.12 0 5.52 2.52 5.52 7.36 c0 4.36 -0.52 6.84 -1.76 8.04 l0 0.24 c1.04 0.36 1.36 2.24 1.76 6.92 l0.8 9.44 l-4 0 l-0.52 -9.44 c-0.28 -4.76 -1 -5.76 -2.2 -5.76 l-2.08 0 l0 15.2 l-4 0 z M90.36000000000001 21.6 l2.48 0 c1.4 0 1.8 -1.4 1.8 -6.24 c0 -3.16 -0.6 -4.16 -1.8 -4.16 l-2.48 0 l0 10.4 z M103.86000000000001 40 l0 -32 l6.48 0 c4.12 0 5.52 2.52 5.52 7.36 c0 4.36 -0.52 6.84 -1.76 8.04 l0 0.24 c1.04 0.36 1.36 2.24 1.76 6.92 l0.8 9.44 l-4 0 l-0.52 -9.44 c-0.28 -4.76 -1 -5.76 -2.2 -5.76 l-2.08 0 l0 15.2 l-4 0 z M107.86000000000001 21.6 l2.48 0 c1.4 0 1.8 -1.4 1.8 -6.24 c0 -3.16 -0.6 -4.16 -1.8 -4.16 l-2.48 0 l0 10.4 z M125.80000000000001 5.960000000000001 l1 -4.04 c0.08 -0.24 0.24 -0.4 0.52 -0.4 l1.2 0 c0.36 0 0.52 0.2 0.4 0.52 l-1.4 4.04 c-0.08 0.28 -0.28 0.4 -0.52 0.4 l-0.76 0 c-0.36 0 -0.52 -0.2 -0.44 -0.52 z M121.36000000000001 40 l0 -16.8 c0 -11.16 0 -15.56 6 -15.56 s6 4.4 6 15.56 l0 16.8 l-4 0 l0 -9.2 l-4 0 l0 9.2 l-4 0 z M125.36000000000001 27.6 l4 0 l0 -4.4 c0 -10.4 0 -12.36 -2 -12.36 s-2 1.96 -2 12.36 l0 4.4 z M138.06 30.240000000000002 l4.04 0 c0.08 5.16 0.48 6.16 1.92 6.16 c1.96 0 1.96 -1.64 1.96 -6 c0 -6.4 -7.92 -4.68 -7.92 -13.2 c0 -5 0 -9.6 6 -9.6 c4.44 0 5.64 2.52 5.92 8.56 l-4 0 c-0.16 -4.36 -0.64 -5.36 -1.92 -5.36 c-1.96 0 -1.96 2.16 -1.96 6.4 c0 6.2 7.96 4 7.96 13.2 c0 5.6 0 10 -6.04 10 c-4.64 0 -5.72 -2.76 -5.96 -10.16 z M154.76000000000002 26.4 l0 -3.2 l8 0 l0 3.2 l-8 0 z M168.26000000000002 40 l0 -32 l6.08 0 c4.12 0 5.48 2.56 5.48 7.16 l0 0.84 c0 2.76 -0.64 4.92 -1.36 6.48 l0 0.16 c1.48 1.24 2.4 3.68 2.6 7.92 l0 1.28 c-0.32 5.64 -1.8 8.16 -5.92 8.16 l-6.88 0 z M172.26000000000002 21.6 l2.08 0 c1.12 0 1.92 -1.32 1.92 -5.6 l0 -0.84 c0 -3.08 -0.72 -3.96 -1.92 -3.96 l-2.08 0 l0 10.4 z M172.26000000000002 36 l2.88 0 c1.2 0 2.04 -1 2.2 -4.16 l0 -1.28 c-0.16 -4.76 -1 -5.76 -2.2 -5.76 l-2.88 0 l0 11.2 z M185.8 5.799999999999997 l1 -4.04 c0.08 -0.24 0.24 -0.4 0.52 -0.4 l1.2 0 c0.36 0 0.52 0.2 0.4 0.52 l-1.4 4.04 c-0.08 0.28 -0.28 0.4 -0.52 0.4 l-0.76 0 c-0.36 0 -0.52 -0.2 -0.44 -0.52 z M185.36 40 l0 -32 l4 0 l0 32 l-4 0 z M194.86 40 l0 -32 l6.48 0 c4.12 0 5.52 2.52 5.52 7.36 c0 4.36 -0.52 6.84 -1.76 8.04 l0 0.24 c1.04 0.36 1.36 2.24 1.76 6.92 l0.8 9.44 l-4 0 l-0.52 -9.44 c-0.28 -4.76 -1 -5.76 -2.2 -5.76 l-2.08 0 l0 15.2 l-4 0 z M198.86 21.6 l2.48 0 c1.4 0 1.8 -1.4 1.8 -6.24 c0 -3.16 -0.6 -4.16 -1.8 -4.16 l-2.48 0 l0 10.4 z M216.64000000000001 5.960000000000001 l1 -4.04 c0.08 -0.24 0.24 -0.4 0.52 -0.4 l1.2 0 c0.36 0 0.52 0.2 0.4 0.52 l-1.4 4.04 c-0.08 0.28 -0.28 0.4 -0.52 0.4 l-0.76 0 c-0.36 0 -0.52 -0.2 -0.44 -0.52 z M211.96 23.16 c0 -11.16 0.24 -15.56 6.24 -15.56 s6.24 4.4 6.24 15.56 c0 12.8 -0.24 17.24 -6.24 17.24 s-6.24 -4.44 -6.24 -17.24 z M215.96 23.16 c0 11.56 0 13.24 2.24 13.24 s2.24 -1.68 2.24 -13.24 c0 -10.4 0 -12.36 -2.24 -12.36 s-2.24 1.96 -2.24 12.36 z M239.84000000000003 40 l0 -16.8 c0 -11.16 0 -15.56 6 -15.56 s6 4.4 6 15.56 l0 16.8 l-4 0 l0 -9.2 l-4 0 l0 9.2 l-4 0 z M243.84000000000003 27.6 l4 0 l0 -4.4 c0 -10.4 0 -12.36 -2 -12.36 s-2 1.96 -2 12.36 l0 4.4 z M257.34000000000003 40 l0 -32 l4 0 l0 28 l5.2 0 l0 4 l-9.2 0 z M270.44000000000005 40 l0 -32 l9.2 0 l0 3.2 l-5.2 0 l0 10.4 l4.4 0 l0 3.2 l-4.4 0 l0 11.2 l5.2 0 l0 4 l-9.2 0 z M282.34000000000003 11.600000000000001 l0 -3.6 l12 0 l0 3.6 l-4 0 l0 28.4 l-4 0 l0 -28.4 l-4 0 z M296.64000000000004 11.600000000000001 l0 -3.6 l12 0 l0 3.6 l-4 0 l0 28.4 l-4 0 l0 -28.4 l-4 0 z M312.5400000000001 40 l0 -16.8 c0 -11.16 0 -15.56 6 -15.56 s6 4.4 6 15.56 l0 16.8 l-4 0 l0 -9.2 l-4 0 l0 9.2 l-4 0 z M316.5400000000001 27.6 l4 0 l0 -4.4 c0 -10.4 0 -12.36 -2 -12.36 s-2 1.96 -2 12.36 l0 4.4 z"></path></g><g id="SvgjsG3029" featurekey="sloganFeature-0" transform="matrix(1.0348259210586548,0,0,1.0348259210586548,131.65472582193448,65.3235818339927)" fill="#d9faff"><path d="M7.86 6 c3.08 0 4.86 2.54 4.86 4.86 c0 2.36 -1.76 4.86 -4.98 4.86 l-3.72 0 l0 4.28 l-2.72 0 l0 -14 l6.56 0 z M7.66 13.280000000000001 c1.48 0 2.4 -1.18 2.4 -2.4 c0 -1.24 -0.94 -2.4 -2.28 -2.4 l-3.76 0 l0 4.8 l3.64 0 z M23.86 20.28 c-3.42 0 -5.68 -2.06 -6.46 -4.24 l2.62 -0.8 c0.56 1.46 1.98 2.62 4 2.62 c1.64 0 2.66 -0.84 2.66 -1.76 c0 -0.74 -0.5 -1.24 -1.84 -1.68 l-3.58 -1.12 c-1.84 -0.58 -3.18 -1.76 -3.16 -3.56 c-0.02 -2.18 2.1 -4.02 5.02 -4.02 c3.02 0 5.26 1.66 6.02 3.6 l-2.54 0.74 c-0.58 -1.14 -1.88 -1.92 -3.46 -1.92 c-1.38 0 -2.26 0.7 -2.26 1.52 c0 0.62 0.42 1.04 1.34 1.32 l3.48 1.12 c2.14 0.66 3.76 1.56 3.76 3.84 c0 2.4 -2.24 4.34 -5.6 4.34 z M38.400000000000006 17.56 l7.54 0 l0 2.44 l-11.34 0 l0 -1.84 l7.36 -9.72 l-7.22 0 l0 -2.44 l11 0 l0 1.86 z M51.62 20 l0 -14 l2.78 0 l0 14 l-2.78 0 z M67.5 20.28 c-4.22 0 -7.36 -3.16 -7.36 -7.3 c0 -4.12 3.14 -7.26 7.3 -7.26 c3.78 0 6.14 2.32 6.78 4.54 l-2.68 0.66 c-0.46 -1.36 -1.96 -2.62 -4.08 -2.62 c-2.76 0 -4.52 2.14 -4.52 4.66 s1.76 4.74 4.52 4.74 c2.12 0 3.62 -1.22 4.08 -2.6 l2.66 0.68 c-0.64 2.24 -3 4.5 -6.7 4.5 z M89.08 6 l2.76 0 l0 14 l-2.76 0 l0 -5.88 l-6.4 0 l0 5.88 l-2.74 0 l0 -14 l2.74 0 l0 5.64 l6.4 0 l0 -5.64 z M104.94 20.28 c-4.24 0 -7.36 -3.16 -7.36 -7.3 c0 -4.12 3.12 -7.26 7.36 -7.26 c4.22 0 7.34 3.14 7.34 7.26 c0 4.14 -3.12 7.3 -7.34 7.3 z M104.94 17.740000000000002 c2.76 0 4.58 -2.08 4.58 -4.76 c0 -2.62 -1.82 -4.72 -4.58 -4.72 c-2.78 0 -4.58 2.1 -4.58 4.72 c0 2.68 1.8 4.76 4.58 4.76 z M120.76 17.48 l6.98 0 l0 2.52 l-9.72 0 l0 -14 l2.74 0 l0 11.48 z M138.64 4.42 l1.54 -2.8 l2.9 0 l-2.16 2.8 l-2.28 0 z M140 20.28 c-4.24 0 -7.36 -3.16 -7.36 -7.3 c0 -4.12 3.12 -7.26 7.36 -7.26 c4.22 0 7.34 3.14 7.34 7.26 c0 4.14 -3.12 7.3 -7.34 7.3 z M140 17.740000000000002 c2.76 0 4.58 -2.08 4.58 -4.76 c0 -2.62 -1.82 -4.72 -4.58 -4.72 c-2.78 0 -4.58 2.1 -4.58 4.72 c0 2.68 1.8 4.76 4.58 4.76 z M167.03999999999996 12.219999999999999 l0 1.4 c0 3.96 -2.88 6.66 -7.08 6.66 c-4.3 0 -7.46 -3.16 -7.46 -7.3 c0 -4.12 3.18 -7.26 7.34 -7.26 c3.46 0 5.84 1.94 6.72 4.28 l-2.54 0.72 c-0.7 -1.44 -2 -2.42 -4.16 -2.42 c-2.74 0 -4.58 2.14 -4.58 4.66 s1.74 4.76 4.88 4.76 c2.36 0 3.8 -1.4 4.04 -3.14 l-4.3 0 l0 -2.36 l7.14 0 z M182.01999999999995 6 l2.76 0 l0 8.26 c0 3.56 -2.16 6.02 -6.06 6.02 c-3.92 0 -6.06 -2.46 -6.06 -6.02 l0 -8.26 l2.78 0 l0 8.22 c0 2.06 1.1 3.54 3.28 3.54 c2.2 0 3.3 -1.48 3.3 -3.54 l0 -8.22 z M196.69999999999996 20.28 c-3.42 0 -5.68 -2.06 -6.46 -4.24 l2.62 -0.8 c0.56 1.46 1.98 2.62 4 2.62 c1.64 0 2.66 -0.84 2.66 -1.76 c0 -0.74 -0.5 -1.24 -1.84 -1.68 l-3.58 -1.12 c-1.84 -0.58 -3.18 -1.76 -3.16 -3.56 c-0.02 -2.18 2.1 -4.02 5.02 -4.02 c3.02 0 5.26 1.66 6.02 3.6 l-2.54 0.74 c-0.58 -1.14 -1.88 -1.92 -3.46 -1.92 c-1.38 0 -2.26 0.7 -2.26 1.52 c0 0.62 0.42 1.04 1.34 1.32 l3.48 1.12 c2.14 0.66 3.76 1.56 3.76 3.84 c0 2.4 -2.24 4.34 -5.6 4.34 z"></path></g></svg>
